<?xml version="1.0" encoding="utf-8"?>
<!-- Generator: Adobe Illustrator 18.0.0, SVG Export Plug-In . SVG Version: 6.00 Build 0)  -->
<!DOCTYPE svg PUBLIC "-//W3C//DTD SVG 1.1//EN" "http://www.w3.org/Graphics/SVG/1.1/DTD/svg11.dtd">
<svg version="1.1" id="Layer_1" xmlns="http://www.w3.org/2000/svg" xmlns:xlink="http://www.w3.org/1999/xlink" x="0px" y="0px"
	 viewBox="75 14 463 595" enable-background="new 75 14 463 595" xml:space="preserve">
<g>
	<g>
		<g>
			<path fill="#222222" d="M288.5,249.1c-3.5,0-6.7-2.2-7.9-5.6c-1.5-4.4,0.8-9.2,5.2-10.7l52.4-18.2c4.4-1.5,9.2,0.8,10.7,5.2
				c1.5,4.4-0.8,9.2-5.2,10.7l-52.4,18.2C290.3,248.9,289.4,249.1,288.5,249.1z"/>
		</g>
		<g>
			<path fill="#222222" d="M315.1,91.6c-4.6,0-8.3-3.7-8.4-8.3l-0.5-30.8c-0.1-4.6,3.6-8.4,8.3-8.5c4.6-0.1,8.4,3.6,8.5,8.3
				l0.5,30.8c0.1,4.6-3.6,8.4-8.3,8.5C315.2,91.6,315.2,91.6,315.1,91.6z"/>
		</g>
		<g>
			<path fill="#222222" d="M384.4,108.8c-1.4,0-2.9-0.4-4.2-1.1c-4-2.3-5.4-7.4-3.1-11.5L391,72.1c2.3-4,7.4-5.4,11.5-3.1
				c4,2.3,5.4,7.4,3.1,11.5l-13.9,24.1C390.1,107.3,387.3,108.8,384.4,108.8z"/>
		</g>
		<g>
			<path fill="#222222" d="M431.5,159.6c-2.9,0-5.7-1.5-7.3-4.2c-2.3-4-0.9-9.1,3.1-11.5l24.6-14.2c4-2.3,9.1-0.9,11.5,3.1
				s0.9,9.1-3.1,11.5l-24.6,14.2C434.4,159.2,433,159.6,431.5,159.6z"/>
		</g>
		<g>
			<path fill="#222222" d="M244.6,108.8c-2.9,0-5.7-1.5-7.3-4.2l-13.9-24.1c-2.3-4-0.9-9.1,3.1-11.5c4-2.3,9.1-0.9,11.5,3.1
				l13.9,24.1c2.3,4,0.9,9.1-3.1,11.5C247.5,108.4,246.1,108.8,244.6,108.8z"/>
		</g>
		<g>
			<path fill="#222222" d="M198.4,160.2c-1.5,0-2.9-0.4-4.3-1.2L169,144.2c-4-2.4-5.3-7.5-3-11.5c2.4-4,7.5-5.3,11.5-3l25.1,14.8
				c4,2.4,5.3,7.5,3,11.5C204.1,158.7,201.3,160.2,198.4,160.2z"/>
		</g>
	</g>
	<g>
		<path fill="#222222" d="M420.2,235.6c1.2-6.3,1.8-12.8,1.8-19.3c0-58.4-47.5-105.9-105.8-105.9c-58.4,0-105.9,47.5-105.9,105.9
			c0,3.6,0.2,7.2,0.6,10.8C142.2,253.9,98.2,308.2,98.2,367c0,80.2,77.2,146,181.1,156l-9.8,62.2c-0.5,3.5,1.2,7,4.3,8.7
			c1.3,0.7,2.6,1,4,1c2.1,0,4.1-0.8,5.7-2.2l80.6-74.6c88.2-19.3,149.7-81.2,149.7-151.1C513.8,313.5,478.9,264.7,420.2,235.6z
			 M316.1,127.2c49.1,0,89,40,89,89.1c0,14.8-3.7,29.6-10.8,42.5l-31.2,57.5c-5.3,9.7-8.2,19.7-9.7,28h-28.9v-75l19.1-6.6
			c4.4-1.5,6.7-6.3,5.2-10.7c-1.5-4.4-6.3-6.7-10.7-5.2l-52.5,18.2c-4.4,1.5-6.7,6.3-5.2,10.7c1.2,3.5,4.4,5.7,7.9,5.7
			c0.9,0,1.8-0.2,2.7-0.5l16.5-5.7v69.2h-28.9c-1.6-8.3-4.4-18.3-9.7-28l-31.3-57.5c-4.6-8.5-7.8-17.7-9.4-27.3
			c-0.1-0.2-0.1-0.4-0.1-0.6c-0.8-4.9-1.2-9.8-1.2-14.7C227,167.2,267,127.2,316.1,127.2z M351.7,365.1v16h-71.2v-16
			c0-0.6,0.1-1.9,0-3.9h71.2C351.6,363.2,351.7,364.5,351.7,365.1z M351.7,397.8v2.1c0,19.6-15.9,35.6-35.6,35.6
			c-19.7,0-35.6-16-35.6-35.6v-2.1H351.7z M358.8,502.1c-1.6,0.3-3.2,1-4.4,2.1l-64.5,59.7l7.4-46.7c0-0.3,0.1-0.5,0.1-0.7l0-0.5
			c0.2-2.2-0.6-4.4-2.1-6.1c-1.5-1.7-3.6-2.7-5.8-2.8C191.6,500.8,115,439.3,115,367c0-50.9,38.5-98.4,98.9-123
			c2.1,8,5.2,15.6,9.1,22.9l31.2,57.5c5.5,10.1,7.8,20.7,8.8,28.4c0,0.1,0,0.3,0,0.4c0,0.4,0,0.8,0.1,1.1c0,0.1,0,0.1,0,0.2
			c0.6,5.9,0.4,9.8,0.4,9.9v35.5c0,28.8,23.4,52.3,52.2,52.4c0,0,0,0,0.1,0h0.3c28.8-0.1,52.2-23.6,52.2-52.4v-35.5
			c0-0.1-0.2-3.9,0.4-9.7c0,0,0-0.1,0-0.2c0-0.4,0.1-0.8,0.2-1.3c0.9-7.7,3.2-18.5,8.8-28.8l31.2-57.5c2.6-4.7,4.8-9.7,6.6-14.8
			C466.8,278.5,497,320.9,497,367C497,429.4,440.2,484.8,358.8,502.1z"/>
	</g>
</g>
<text transform="matrix(1 0 0 1 -5.792356e-004 717.2996)" font-family="'Arial-BoldMT'" font-size="30.6">Created by Garrett Knoll</text>
<text transform="matrix(1 0 0 1 -5.792356e-004 747.8979)" font-family="'Arial-BoldMT'" font-size="30.6">from the Noun Project</text>
</svg>
