<?xml version="1.0" encoding="utf-8"?>
<!-- Generator: Adobe Illustrator 18.0.0, SVG Export Plug-In . SVG Version: 6.00 Build 0)  -->
<!DOCTYPE svg PUBLIC "-//W3C//DTD SVG 1.1//EN" "http://www.w3.org/Graphics/SVG/1.1/DTD/svg11.dtd">
<svg version="1.1" id="Capa_1" xmlns="http://www.w3.org/2000/svg" xmlns:xlink="http://www.w3.org/1999/xlink" x="0px" y="0px"
	 viewBox="0 0 612 792" enable-background="new 0 0 612 792" xml:space="preserve">
<g>
	<g id="loop_x5F_alt2">
		<g>
			<path fill="#222222" d="M381.4,510.8l114.9-153l115.6,153h-76.5V549c0,63.3-51.5,114.8-114.8,114.8H191.3
				C128,663.8,76.5,612.3,76.5,549v-38.3H153V549c0,21.1,17.2,38.3,38.3,38.3h229.5c21.1,0,38.3-17.2,38.3-38.3v-38.3H381.4z"/>
			<path fill="#222222" d="M230.6,281.3l-114.9,153L0,281.3h76.5V243c0-63.3,51.5-114.8,114.8-114.8h229.5
				c63.3,0,114.8,51.5,114.8,114.8v38.3H459V243c0-21.1-17.2-38.3-38.3-38.3H191.3c-21.1,0-38.3,17.2-38.3,38.3v38.3H230.6z"/>
		</g>
	</g>
</g>
</svg>
